# xmcd
#
# Track frame offsets: 
#        150
#        27490
#        35808
#        58811
#        70622
#        95637
#        106020
#        119393
#        128968
#        138852
#        144280
#        148541
#        158280
#
# Disc length: 2431 seconds
#
# Revision: 0
# Processed by: cddbd v1.5.2PL0 Copyright (c) Steve Scherf et al.
# Submitted via: ExactAudioCopy v0.99pb5
#
DISCID=b2097d0d
DTITLE=Choeur de Chambre de Rouen - Chansons françaises de la Renaissa
DTITLE=nce
DYEAR=2002
DGENRE=Classique
TTITLE0=La guerre (La bataille de Marignan) - C. Janequin
TTITLE1=Vous me tuez si doucement - J. Mauduit
TTITLE2=Le chant des oyseaux - C. Janequin
TTITLE3=Ce ris plus doux que l'oeuvre d'une abeille - A. de Bertrand
TTITLE4=Les cris de Paris - C. Janequin
TTITLE5=Au joli bois - C. de Sermizy
TTITLE6=La nuict froide et sombre - R. de Lassus
TTITLE7=Mignonne, allons voir si la rose - G. Costeley
TTITLE8=Revecy venir du printans - C. Le Jeune
TTITLE9=Il est bel et bon - P. Passereau
TTITLE10=La, la, la, je ne l'ose dire - P. Certon
TTITLE11=Mille regrets de vous abandonner - Josquin de Prés
TTITLE12=La déploration sur la mort de Jehan Okeghem - Josquin des Pré
TTITLE12=s
EXTD=
EXTT0=
EXTT1=
EXTT2=
EXTT3=
EXTT4=
EXTT5=
EXTT6=
EXTT7=
EXTT8=
EXTT9=
EXTT10=
EXTT11=
EXTT12=
PLAYORDER=
